# xmcd CD database file
#
# Track frame offsets:
#	150
#	40055
#	52131
#	69506
#	83277
#	115959
#	132650
#	147656
#	163561
#
# Disc length: 2371 seconds
#
# Revision: 3
# Processed by: cddbd v1.4PL0 Copyright (c) Steve Scherf et al.
# Submitted via: CDex 1.50beta9
#
DISCID=7f094109
DTITLE=Astor Piazzolla - Tango from Argentina [CD2]
DYEAR=1900
DGENRE=Tango
TTITLE0=Conciertoo para quinteto
TTITLE1=La casita de mis viejos
TTITLE2=Milonga triste
TTITLE3=El motivo
TTITLE4=Tristeza de un doble a
TTITLE5=El gordo triste
TTITLE6=Un dia de paz
TTITLE7=Garua
TTITLE8=La muerte del angel
EXTD=
EXTT0=
EXTT1=
EXTT2=
EXTT3=
EXTT4=
EXTT5=
EXTT6=
EXTT7=
EXTT8=
PLAYORDER=
